PathFileType	4	(X/Y/Z)	C:\Users\WrightLab\Desktop\Jo\P1_boxCal33.trc
DataRate	CameraRate	NumFrames	NumMarkers	Units	OrigDataRate	OrigDataStartFrame	OrigNumFrames
100.00	100.00	       16	19	mm	100.00	391	       624
Frame#	Time	Headset_Front			Headset_Back			Headset_Left			Headset_Right			Left_Shoulder			Right_Shoulder			Sternum			C7			Left Elbow			Right Elbow			Left Wrist			Right Wrist			Left ASIS			Right ASIS			S2			Left Knee			Right Knee			Left Ankle			Right Ankle			
		X1	Y1	Z1	X2	Y2	Z2	X3	Y3	Z3	X4	Y4	Z4	X5	Y5	Z5	X6	Y6	Z6	X7	Y7	Z7	X8	Y8	Z8	X9	Y9	Z9	X10	Y10	Z10	X11	Y11	Z11	X12	Y12	Z12	X13	Y13	Z13	X14	Y14	Z14	X15	Y15	Z15	X16	Y16	Z16	X17	Y17	Z17	X18	Y18	Z18	X19	Y19	Z19	

391	3.900	35.95053	1387.83459	1720.81750				187.66534	1485.03296	1617.52881	-32.47744	1431.56665	1596.31165	323.19235	1331.33447	1519.51001	-49.34661	1295.80188	1458.23511	107.01661	1203.93152	1617.04126	164.55389	1322.71619	1384.60291	465.42603	1036.43640	1491.36646	-108.11930	1027.39026	1375.99280	536.54895	882.13049	1638.09326	-199.44913	800.37427	1424.39038	231.12320	931.16888	1636.86243	36.32465	915.81152	1599.96912	188.28156	937.74677	1309.52246	345.28448	490.98044	1476.88806	4.61805	521.02423	1610.22791	361.67706	137.82187	1366.46008				
392	3.910	33.18459	1386.59045	1729.34338				185.24638	1484.06604	1626.33936	-34.66802	1429.41431	1603.93982	322.42947	1329.55688	1529.92542	-49.58139	1293.72668	1468.01367	105.72114	1202.13184	1625.78003	164.37569	1320.78015	1394.66418	465.21826	1034.88025	1505.61670	-107.91470	1027.34753	1380.34351	536.05090	882.43005	1653.86719	-199.90434	799.48303	1425.10754	230.57616	928.84814	1644.65955	35.20964	913.44934	1610.34277	186.17142	937.68427	1317.64673	344.70822	488.98206	1482.26404	5.95057	518.37836	1618.94470	360.88553	138.20242	1368.07849				
393	3.920	29.93680	1385.36462	1736.56506				183.40979	1482.83215	1637.70422	-36.09603	1428.38965	1611.24976	320.64508	1327.98169	1540.84204	-50.42844	1292.99463	1475.63184	103.66187	1199.54968	1634.18042	163.75911	1319.30774	1404.24768	463.78958	1032.85596	1520.41663	-106.88692	1027.08411	1384.76086	534.11273	883.03284	1671.30798	-200.15840	798.39984	1425.46924	229.11391	926.66583	1655.27527	33.55816	911.12152	1621.35950	184.28069	936.02454	1326.83020	345.52853	487.51617	1487.37109	7.94464	514.61145	1625.92163	360.40958	139.12909	1368.72754				
394	3.930	26.20358	1383.62817	1744.84192				181.48196	1481.06299	1646.52075	-38.01027	1427.44983	1619.57019	319.47678	1325.76892	1551.35193	-51.99687	1291.68127	1484.54089	101.72853	1197.85950	1643.81958	162.76537	1317.79651	1414.61743	462.38953	1030.58508	1534.05542	-106.60886	1026.42786	1390.31409	531.99365	882.52814	1683.59888	-200.33392	797.65051	1426.58020	227.99127	924.21143	1664.59167	31.83852	909.31299	1631.32788	182.08437	934.54547	1337.32458	344.85550	487.17435	1493.02747	7.63122	510.51556	1632.71301	360.30203	139.29926	1369.53870				
395	3.940	22.87059	1382.52454	1753.32886				179.16162	1479.16589	1656.94678	-40.39146	1425.57947	1626.17346	318.16739	1323.74988	1561.50916	-53.34770	1290.61011	1492.88647	99.23455	1196.14246	1653.31812	161.87239	1315.30627	1423.87146	460.43304	1028.42053	1546.92139	-105.81361	1026.05762	1396.46985	529.65961	881.94324	1697.44543	-200.00787	796.60754	1428.14661	226.48061	921.91150	1673.64832	30.30832	907.04584	1641.64319	179.91962	933.01050	1346.56897	344.49338	485.48889	1497.19104	6.87534	506.84152	1642.43054	359.98935	139.76462	1369.88904				
396	3.950	19.04174	1382.36182	1762.80798				176.58159	1476.75903	1663.97217	-42.64874	1424.56140	1634.18738	316.29819	1321.55347	1571.12671	-55.19069	1289.01685	1501.28015	97.49078	1194.19238	1662.71338	159.89211	1313.25928	1433.60913	457.86844	1025.85522	1559.71460	-105.77193	1025.30066	1402.06128	526.51776	881.81860	1711.47290	-200.98517	795.67792	1429.73901	225.10539	920.88306	1683.77576	28.77309	904.96008	1652.11194	177.42044	931.46179	1356.74890	343.86697	484.86700	1501.66101	5.46823	503.81137	1651.98792	359.69345	140.23500	1370.54761	291.00165	104.45684	1318.18481	
397	3.960	15.13622	1381.60095	1771.31384				173.56339	1475.07837	1674.75488	-45.33539	1423.78906	1643.26538	313.99710	1319.18884	1580.36914	-56.56199	1286.53638	1512.45703	95.70620	1192.44556	1672.45374	158.35838	1311.36475	1442.51904	454.81491	1023.25098	1571.65442	-105.96063	1024.07129	1408.91101	523.16748	880.85486	1724.36816	-200.56155	794.60602	1431.31079	224.29773	918.50793	1693.86060	26.57080	902.91949	1662.39453	175.04007	929.18384	1366.85596	343.26239	484.50165	1507.41248	4.39438	500.70129	1661.17456	359.65369	141.25766	1371.52026				
398	3.970	11.05266	1380.47095	1778.95203				170.77173	1473.97266	1683.16284	-47.89490	1422.45593	1649.79150	311.75784	1317.44690	1589.89453	-60.04447	1284.15686	1521.90759	93.59998	1190.87842	1681.69971	155.96452	1309.23352	1452.68176	451.21588	1020.25262	1583.06299	-106.34853	1022.77905	1415.13782	519.14783	879.85669	1737.21814	-200.75865	793.22333	1433.55530	222.76317	916.93378	1704.50366	24.72547	905.71899	1680.60522	171.84944	926.61816	1377.78186	342.38889	484.30045	1512.22986	2.62358	498.56140	1669.69629	359.51001	143.17491	1371.44836				
399	3.980							168.10753	1472.01489	1693.01599				309.41827	1315.15503	1598.63965	-61.93814	1281.93237	1533.02039	90.97108	1189.70129	1693.43579	153.31195	1306.49158	1461.44934	447.08752	1017.12885	1594.83167	-106.45639	1021.41107	1422.47583	514.79474	878.83478	1749.61987	-200.88451	791.54938	1435.62366	220.89220	915.50409	1715.35620	23.16268	900.75775	1686.10254	169.71625	923.99860	1389.72571	341.51495	483.98560	1518.29431	0.51803	497.20981	1682.29456	359.11005	144.26764	1372.24585	96.24265	181.56013	1910.68384	
400	3.990	-54.57438	1421.50244	1665.72656				165.05786	1469.55347	1700.61902				306.74161	1313.40796	1607.65198	-65.34177	1280.46448	1542.69946	88.90075	1187.63281	1701.89856	149.87372	1304.40454	1470.99524	442.22205	1013.77588	1604.80823	-107.13679	1020.07410	1430.37109	510.56595	875.29602	1759.26221	-200.30156	789.49200	1438.63098	220.07097	914.33417	1724.93799	21.71972	899.03790	1696.70898	166.50002	921.82904	1400.08203	340.00616	484.15427	1523.83960	-0.67003	497.27017	1694.87830	359.20319	145.88799	1373.39075				
401	4.000	-57.70726	1420.04980	1674.23767				161.84143	1468.09900	1710.74097				303.90430	1311.32849	1616.42017	-68.92309	1278.00208	1552.39648	86.21401	1187.09119	1713.09961	146.71260	1301.96228	1480.14587	438.01340	1011.23407	1614.89673	-107.48629	1018.09937	1438.36157	505.61572	874.48444	1770.49829	-200.57544	787.83527	1442.04749	218.02582	913.60278	1736.97742	20.66143	897.37238	1706.75647	163.04327	919.10046	1409.73193	338.34851	483.87967	1530.47900	-2.13724	497.08701	1707.03223	358.60504	149.00133	1373.07678	90.65032	174.33397	1930.92883	
402	4.010	-61.24662	1419.95349	1682.60022				157.90517	1467.88855	1721.25745				300.55273	1309.45215	1624.66687	-73.41221	1276.82959	1560.60242	83.00139	1185.80737	1722.83948	143.07611	1299.74341	1489.84741	432.73444	1008.17163	1623.70581	-109.09710	1015.88861	1447.72510	500.42401	872.23260	1780.57532	-200.32500	786.17676	1446.25061	215.89676	912.50128	1747.53503	19.14314	896.18597	1718.53381	159.53865	916.65094	1420.50842	336.18143	484.13882	1537.08691	-4.02468	497.58636	1722.11243	357.76901	149.99194	1374.10461	89.16075	167.19353	1937.00928	
403	4.020	-63.96850	1419.29370	1688.57813				154.58646	1465.49451	1728.20654				296.79129	1307.51270	1633.85400	-77.24989	1275.69617	1569.57190	80.05720	1185.14612	1733.44763	139.06174	1297.52783	1499.35583	427.25882	1005.63837	1633.52039	-111.08858	1013.87695	1456.47754	494.60983	868.42731	1789.89063	-201.10249	785.20636	1449.74915	213.41989	912.42969	1758.31812	17.04669	894.96460	1730.20959	156.16484	913.87329	1431.12158	334.65305	484.56570	1545.18555	-6.18322	497.49252	1735.96155	356.31882	152.48091	1375.80969	87.53397	160.20575	1943.06995	
404	4.030	-68.95267	1420.40137	1698.71729				149.99765	1464.57312	1737.76318				292.92438	1305.93591	1642.62097	-82.35329	1275.05676	1577.12012	76.24947	1184.02893	1743.18250	134.95143	1295.69690	1508.93811	421.60672	1002.64935	1642.11633	-113.16992	1011.72711	1465.46997	489.14728	866.80487	1799.26501	-202.34357	784.27240	1454.72278	211.42754	912.04120	1769.53040	14.76305	893.40729	1740.85059	152.73698	911.62091	1442.05823	332.55118	483.76807	1552.34534	-8.63429	496.12280	1749.18042	355.56125	156.21106	1377.38416	85.32487	154.00612	1947.80518	
405	4.040	-72.30079	1419.46130	1705.20117	-21.95582	1380.29053	1837.37329	146.81198	1463.83777	1746.79504				288.92950	1304.72571	1651.81213	-84.81430	1271.42590	1589.52893	71.81834	1183.27954	1753.65234	130.91162	1293.40906	1518.31042	416.10806	1000.27753	1648.92053	-116.00603	1008.82050	1476.59033	483.14951	863.79297	1808.81311	-203.12653	783.26270	1460.32190	208.83493	911.03918	1780.93420	11.61288	892.52875	1753.19751	149.63969	909.00024	1455.86670	330.74881	483.38776	1562.31921	-11.10622	493.78815	1762.73364	354.81406	160.03673	1379.71777	81.86709	149.38264	1954.00598	
406	4.050	-76.77312	1420.15649	1713.75085	-27.02493	1381.28516	1846.25500	141.87627	1463.77332	1757.40967				284.30670	1303.56323	1660.80676	-89.24135	1269.82129	1599.22363	67.65152	1182.30017	1764.18469	126.42725	1291.60986	1528.45227	409.82571	998.04602	1657.10925	-118.38135	1007.13684	1487.90454	477.10321	860.71271	1817.39453	-204.59581	782.65045	1466.67932	205.58202	910.48065	1792.17712	8.10294	891.83710	1765.69543	145.67647	907.24963	1467.15076	329.54254	482.58832	1572.32678	-13.51185	490.39908	1776.54138	354.79099	163.64380	1382.61023	79.62035	144.06462	1958.77954	
